<svg width="22" height="21" viewBox="0 0 22 21" fill="none" xmlns="http://www.w3.org/2000/svg">
<path d="M18.2941 4.00154C20.0707 5.80121 21.0379 8.18358 20.9989 10.6433C20.9598 13.1031 19.9173 15.4569 18.0839 17.2051C16.2498 18.954 13.7682 19.9583 11.1633 19.9988C8.55844 20.0392 6.04337 19.1123 4.14984 17.4208C2.25707 15.73 1.13452 13.4092 1.01133 10.9519C0.888144 8.4947 1.77332 6.08404 3.48691 4.23073C5.20125 2.37661 7.61082 1.22599 10.2077 1.02989C12.8047 0.833784 15.3767 1.60838 17.379 3.1841M6.50001 10.5L7.21795 11.3616C8.40201 12.7824 9.41775 14.3355 10.2449 15.9898C10.3522 16.2044 10.6567 16.209 10.7705 15.9978L11.1939 15.2114C13.0603 11.7452 15.2551 8.466 17.7481 5.41905L18.5 4.50002" stroke="#F65353"/>
</svg>
