<svg width="21" height="20" viewBox="0 0 21 20" fill="none" xmlns="http://www.w3.org/2000/svg">
<path d="M17.7941 3.50151C19.5707 5.30118 20.5379 7.68355 20.4989 10.1433C20.4598 12.603 19.4173 14.9569 17.5839 16.705C15.7498 18.4539 13.2682 19.4583 10.6633 19.4987C8.05844 19.5392 5.54337 18.6123 3.64984 16.9208C1.75707 15.23 0.634519 12.9092 0.511328 10.4519C0.388144 7.99467 1.27332 5.58401 2.98691 3.7307C4.70125 1.87657 7.11082 0.725961 9.70773 0.529861C12.3047 0.333753 14.8767 1.10835 16.879 2.68407M6.00001 9.99999L6.71795 10.8615C7.90201 12.2824 8.91775 13.8355 9.7449 15.4898C9.85218 15.7043 10.1567 15.709 10.2705 15.4977L10.6939 14.7114C12.5603 11.2451 14.7551 7.96597 17.2481 4.91902L18 3.99999" stroke="#1BA3BE"/>
</svg>
