<svg width="14" height="14" viewBox="0 0 14 14" fill="none" xmlns="http://www.w3.org/2000/svg">
<path fill-rule="evenodd" clip-rule="evenodd" d="M7 -0.000244141C6.44773 -0.000244141 6.00001 0.447465 6.00001 0.999745V5.99977H0.999949C0.447692 5.99977 0 6.44746 0 6.99972C0 7.55197 0.447693 7.99967 0.999949 7.99967H6.00001V12.9997C6.00001 13.552 6.44773 13.9997 7 13.9997C7.55228 13.9997 8 13.552 8 12.9997V7.99967H13.0001C13.5523 7.99967 14 7.55197 14 6.99972C14 6.44746 13.5523 5.99977 13.0001 5.99977H8V0.999747C8 0.447467 7.55228 -0.000244141 7 -0.000244141Z" fill="#1EACC7"/>
</svg>
