<svg width="81" height="27" viewBox="0 0 81 27" fill="none" xmlns="http://www.w3.org/2000/svg">
<g clip-path="url(#clip0_42_59)">
<path d="M74.4846 0.00341797H6.47442C6.22644 0.00341797 5.98118 0.00341973 5.7341 0.00522575C5.52685 0.00612876 5.32141 0.0106462 5.11326 0.0133553C4.65893 0.0187733 4.20642 0.0585009 3.75843 0.132548C3.31134 0.208401 2.87784 0.350177 2.47329 0.554257C2.06965 0.760144 1.7004 1.02743 1.37911 1.3471C1.05692 1.66586 0.787222 2.03429 0.582686 2.43793C0.377244 2.84068 0.235155 3.27232 0.160038 3.7184C0.0849204 4.16359 0.0441941 4.61329 0.038764 5.06479C0.0324288 5.27068 0.0315237 5.47747 0.0288086 5.68426V21.2323C0.0324287 21.4409 0.0324288 21.6432 0.038764 21.8526C0.0441941 22.3042 0.0849204 22.7539 0.160038 23.199C0.23425 23.6451 0.377244 24.0768 0.582686 24.4804C0.787222 24.8831 1.05692 25.2498 1.37911 25.5658C1.69859 25.8864 2.06874 26.1546 2.47329 26.3587C2.87784 26.5637 3.31134 26.7063 3.75843 26.7831C4.20642 26.8562 4.65893 26.896 5.11326 26.9023C5.32232 26.9068 5.52776 26.9095 5.7341 26.9095C5.98118 26.9104 6.22644 26.9104 6.47442 26.9104H74.4836C74.7271 26.9104 74.9733 26.9104 75.2167 26.9095C75.4222 26.9095 75.6339 26.9068 75.8403 26.9023C76.2928 26.8969 76.7453 26.8571 77.1924 26.7831C77.6413 26.7063 78.0757 26.5628 78.4821 26.3587C78.8866 26.1546 79.2559 25.8864 79.5753 25.5658C79.8975 25.248 80.1672 24.8813 80.3745 24.4804C80.579 24.0768 80.7202 23.6451 80.7926 23.199C80.8677 22.7539 80.9102 22.3042 80.9184 21.8526C80.9211 21.6441 80.9211 21.4418 80.9211 21.2323C80.9265 20.9876 80.9265 20.7447 80.9265 20.4963V6.4184C80.9265 6.17188 80.9265 5.92807 80.9211 5.68426C80.9211 5.47837 80.9211 5.27068 80.9184 5.06479C80.9102 4.61329 80.8686 4.16359 80.7926 3.7184C80.7193 3.27322 80.5781 2.84158 80.3745 2.43793C79.9573 1.62884 79.2957 0.970545 78.4821 0.554257C78.0757 0.350177 77.6413 0.208401 77.1924 0.132548C76.7453 0.0585009 76.2937 0.0187733 75.8403 0.0133553C75.6339 0.00974323 75.4231 0.00612876 75.2167 0.00522575C74.9733 0.00432274 74.7271 0.00432186 74.4836 0.00432186L74.4846 0.00341797Z" fill="black"/>
<path d="M17.3792 13.659C17.3937 12.5176 17.9937 11.4638 18.9675 10.866C18.3503 9.98645 17.3529 9.44826 16.2769 9.41485C15.1447 9.29655 14.0478 10.0912 13.4704 10.0912C12.893 10.0912 11.9943 9.42749 11.0377 9.44645C9.77967 9.48709 8.63481 10.1833 8.02211 11.2814C6.71796 13.5335 7.69087 16.8439 8.9398 18.6644C9.56427 19.5556 10.2946 20.5517 11.2503 20.5165C12.1852 20.4776 12.5346 19.9214 13.6631 19.9214C14.7917 19.9214 15.1094 20.5165 16.0841 20.4939C17.0878 20.4776 17.7195 19.5981 18.3222 18.6987C18.7711 18.0639 19.1168 17.3613 19.3458 16.6182C18.1539 16.1152 17.3792 14.9503 17.3774 13.659H17.3792ZM15.5375 8.21746C16.0841 7.56187 16.3538 6.72026 16.2886 5.86963C15.4524 5.95722 14.6804 6.35545 14.1265 6.98575C13.579 7.60792 13.302 8.42063 13.3554 9.24689C14.2025 9.25592 15.0071 8.87575 15.5375 8.21746ZM29.1989 18.2589H26.0077L25.2412 20.5165H23.89L26.9128 12.1636H28.3174L31.3401 20.5165H29.9654L29.1998 18.2589H29.1989ZM26.3381 17.2169H28.8676L27.6205 13.5524H27.5852L26.3372 17.2169H26.3381ZM37.8663 17.4715C37.8663 19.3642 36.8509 20.5797 35.3196 20.5797C34.5277 20.6212 33.7819 20.2076 33.3991 19.5141H33.3701V22.5302H32.1176V14.4256H33.3303V15.4388H33.3529C33.753 14.7498 34.4996 14.3363 35.296 14.3624C36.8454 14.3624 37.8663 15.5842 37.8663 17.4715ZM36.5785 17.4715C36.5785 16.2389 35.9395 15.428 34.9657 15.428C33.9919 15.428 33.3647 16.256 33.3647 17.4715C33.3647 18.687 34.0082 19.5204 34.9657 19.5204C35.9232 19.5204 36.5785 18.7158 36.5785 17.4715ZM44.5834 17.4715C44.5834 19.3642 43.568 20.5797 42.0367 20.5797C41.2448 20.6212 40.499 20.2076 40.1162 19.5141H40.0872V22.5302H38.8347V14.4256H40.0474V15.4388H40.07C40.4701 14.7498 41.2167 14.3363 42.0131 14.3624C43.5626 14.3624 44.5834 15.5842 44.5834 17.4715ZM43.2956 17.4715C43.2956 16.2389 42.6566 15.428 41.6828 15.428C40.709 15.428 40.0818 16.256 40.0818 17.4715C40.0818 18.687 40.7253 19.5204 41.6828 19.5204C42.6403 19.5204 43.2956 18.7158 43.2956 17.4715ZM49.0235 18.1885C49.1158 19.0166 49.9222 19.5611 51.0245 19.5611C52.1268 19.5611 52.84 19.0175 52.84 18.2707C52.84 17.6223 52.382 17.234 51.2969 16.9685L50.2118 16.7076C48.6741 16.3373 47.961 15.6194 47.961 14.4555C47.961 13.0142 49.2199 12.0245 51.0073 12.0245C52.7947 12.0245 53.9894 13.0142 54.0301 14.4555H52.7649C52.6889 13.622 51.9983 13.119 50.9892 13.119C49.9801 13.119 49.2896 13.6283 49.2896 14.3688C49.2896 14.9593 49.7303 15.307 50.8091 15.5725L51.7313 15.7982C53.4491 16.2037 54.1631 16.8918 54.1631 18.1135C54.1631 19.6767 52.9151 20.6546 50.9313 20.6546C49.0751 20.6546 47.8216 19.6992 47.7402 18.1876H49.0226L49.0235 18.1885ZM56.8674 12.9844V14.4256H58.0285V15.4154H56.8674V18.7727C56.8674 19.2947 57.1 19.5376 57.6095 19.5376C57.7471 19.5349 57.8846 19.5258 58.0222 19.5087V20.493C57.7923 20.5354 57.5597 20.5553 57.3262 20.5508C56.0909 20.5508 55.6085 20.0875 55.6085 18.9064V15.4154H54.7215V14.4256H55.6085V12.9844H56.8674ZM58.7 17.4706C58.7 15.5544 59.8313 14.3507 61.5943 14.3507C63.3573 14.3507 64.4895 15.5544 64.4895 17.4706C64.4895 19.3868 63.37 20.5905 61.5943 20.5905C59.8187 20.5905 58.7 19.3913 58.7 17.4706ZM63.2143 17.4706C63.2143 16.1558 62.6107 15.3801 61.5952 15.3801C60.5798 15.3801 59.977 16.1621 59.977 17.4706C59.977 18.7791 60.5798 19.5602 61.5952 19.5602C62.6107 19.5602 63.2143 18.7899 63.2143 17.4706ZM65.524 14.4256H66.7186V15.4623H66.7476C66.9141 14.795 67.5268 14.3363 68.2155 14.3624C68.3594 14.3624 68.5033 14.3778 68.6445 14.4094V15.5788C68.4617 15.5237 68.2716 15.4975 68.0816 15.5029C67.7132 15.4876 67.3566 15.6348 67.1059 15.9039C66.8553 16.173 66.734 16.5387 66.7756 16.9044V20.5165H65.5231V14.4266L65.524 14.4256ZM74.4213 18.7267C74.253 19.832 73.1733 20.5905 71.7931 20.5905C70.0174 20.5905 68.916 19.4039 68.916 17.4995C68.916 15.595 70.0238 14.3507 71.7406 14.3507C73.4574 14.3507 74.4919 15.5084 74.4919 17.355V17.783H70.1803V17.8589C70.1405 18.3122 70.2971 18.761 70.6111 19.0915C70.9252 19.4211 71.3659 19.6008 71.822 19.5845C72.4302 19.6414 73.0031 19.2929 73.2312 18.7276H74.4213V18.7267ZM70.1858 16.9089H73.2375C73.2601 16.5017 73.1117 16.1034 72.8275 15.81C72.5434 15.5165 72.1497 15.3548 71.7406 15.3639C71.3288 15.3612 70.9333 15.5237 70.641 15.8136C70.3487 16.1034 70.1858 16.4981 70.1867 16.9098L70.1858 16.9089ZM26.1806 5.87505C26.7127 5.83712 27.2331 6.03849 27.5997 6.42498C27.9662 6.81147 28.14 7.34154 28.073 7.86889C28.073 9.15117 27.3788 9.88802 26.1806 9.88802H24.728V5.87414H26.1806V5.87505ZM25.3525 9.32093H26.1109C26.491 9.34351 26.8612 9.19451 27.1182 8.91458C27.3752 8.63464 27.4929 8.25357 27.4377 7.87792C27.4893 7.50408 27.3707 7.12572 27.1137 6.84849C26.8566 6.57037 26.4892 6.42227 26.1109 6.44304H25.3525V9.32183V9.32093ZM28.7789 8.37277C28.7264 7.83006 28.988 7.30451 29.4523 7.01645C29.9165 6.7293 30.5039 6.7293 30.9691 7.01645C31.4334 7.30361 31.694 7.82916 31.6424 8.37277C31.6958 8.91638 31.4352 9.44284 30.97 9.7309C30.5048 10.019 29.9165 10.019 29.4514 9.7309C28.9862 9.44284 28.7255 8.91638 28.7789 8.37277ZM31.0261 8.37277C31.0261 7.71628 30.7302 7.33251 30.2116 7.33251C29.693 7.33251 29.398 7.71628 29.398 8.37277C29.398 9.02926 29.6912 9.41575 30.2116 9.41575C30.732 9.41575 31.0261 9.03197 31.0261 8.37277Z" fill="white"/>
<path d="M35.4501 9.89052H34.8284L34.2012 7.65918H34.1532L33.5287 9.89052H32.9133L32.0762 6.86182H32.6844L33.2274 9.17262H33.2726L33.8971 6.86182H34.4718L35.0962 9.17262H35.1433L35.6845 6.86182H36.2836L35.4501 9.89052Z" fill="white"/>
<path d="M36.9867 6.86089H37.5632V7.3422H37.6076C37.7633 6.98822 38.1271 6.7715 38.5135 6.8022C38.8131 6.77963 39.1063 6.89431 39.31 7.11374C39.5145 7.33317 39.6077 7.63297 39.5643 7.92916V9.88959H38.9651V8.07905C38.9651 7.59233 38.7534 7.35033 38.3099 7.35033C38.1072 7.3413 37.9099 7.42076 37.7705 7.56795C37.6311 7.71514 37.5632 7.91652 37.585 8.11789V9.88959H36.9858V6.86089H36.9867Z" fill="white"/>
<path d="M40.52 5.6792H41.1182V9.89084H40.52V5.6792Z" fill="white"/>
<path d="M41.9517 8.37468C41.9001 7.83197 42.1608 7.30642 42.625 7.01836C43.0893 6.7312 43.6776 6.7312 44.1419 7.01836C44.6071 7.30552 44.8677 7.83107 44.8152 8.37468C44.8677 8.91829 44.6071 9.44475 44.1419 9.73281C43.6767 10.0209 43.0884 10.0209 42.6241 9.73281C42.159 9.44475 41.8983 8.91829 41.9517 8.37468ZM44.1989 8.37468C44.1989 7.71819 43.9038 7.33441 43.3844 7.33441C42.8649 7.33441 42.5707 7.71819 42.5707 8.37468C42.5707 9.03117 42.864 9.41766 43.3844 9.41766C43.9048 9.41766 44.1989 9.03388 44.1989 8.37468ZM45.446 9.03388C45.446 8.48846 45.8533 8.17422 46.5755 8.12997L47.3982 8.08301V7.82204C47.3982 7.50237 47.1864 7.32177 46.7764 7.32177C46.4415 7.32177 46.2099 7.44458 46.1438 7.6586H45.5637C45.6243 7.13846 46.1148 6.80435 46.8036 6.80435C47.5647 6.80435 47.9937 7.18271 47.9937 7.82204V9.89174H47.4172V9.46642H47.3692C47.1737 9.77706 46.8253 9.95856 46.4578 9.94231C46.1999 9.9694 45.9429 9.88542 45.7501 9.71294C45.5573 9.54047 45.4469 9.29395 45.4451 9.03569L45.446 9.03388ZM47.3973 8.77471V8.52187L46.656 8.56883C46.2379 8.59682 46.0488 8.73859 46.0488 9.00589C46.0488 9.27318 46.2859 9.43753 46.6117 9.43753C46.8045 9.45739 46.9972 9.39779 47.1457 9.27227C47.2932 9.14766 47.3846 8.96796 47.3982 8.77471H47.3973ZM48.781 8.37468C48.781 7.41749 49.2743 6.81157 50.0408 6.81157C50.4282 6.79351 50.7911 7.0012 50.9712 7.34254H51.0156V5.6792H51.6147V9.89084H51.0409V9.41224H50.9929C50.7983 9.75177 50.4309 9.95495 50.0399 9.9405C49.2679 9.9405 48.7801 9.33458 48.7801 8.37468H48.781ZM49.4001 8.37468C49.4001 9.01672 49.7033 9.40412 50.211 9.40412C50.7187 9.40412 51.0282 9.01221 51.0282 8.37739C51.0282 7.74258 50.7133 7.34796 50.211 7.34796C49.7087 7.34796 49.4001 7.73716 49.4001 8.37468ZM54.0945 8.37468C54.042 7.83197 54.3035 7.30642 54.7678 7.01926C55.2321 6.73211 55.8194 6.73211 56.2846 7.01926C56.7498 7.30642 57.0105 7.83197 56.958 8.37468C57.0114 8.91829 56.7507 9.44475 56.2855 9.73281C55.8203 10.0209 55.2321 10.0209 54.7678 9.73281C54.3026 9.44475 54.042 8.91829 54.0954 8.37468H54.0945ZM56.3416 8.37468C56.3416 7.71819 56.0457 7.33441 55.5271 7.33441C55.0085 7.33441 54.7135 7.71819 54.7135 8.37468C54.7135 9.03117 55.0067 9.41766 55.5271 9.41766C56.0475 9.41766 56.3416 9.03388 56.3416 8.37468ZM57.7616 6.86124H58.3381V7.34254H58.3825C58.5382 6.98856 58.902 6.77184 59.2884 6.80254C59.588 6.77997 59.8812 6.89465 60.0848 7.11408C60.2885 7.33351 60.3826 7.63331 60.3392 7.9295V9.88994H59.74V8.0794C59.74 7.59267 59.5282 7.35067 59.0848 7.35067C58.8821 7.34164 58.6848 7.4211 58.5463 7.56829C58.4069 7.71549 58.339 7.91686 58.3608 8.11823V9.88994H57.7616V6.86124ZM63.7249 6.10723V6.87478H64.3828V7.37866H63.7249V8.93636C63.7249 9.25331 63.8561 9.39238 64.1538 9.39238C64.2299 9.39238 64.3068 9.38786 64.3819 9.37883V9.87639C64.2742 9.89535 64.1656 9.90619 64.0561 9.90709C63.39 9.90709 63.1248 9.67321 63.1248 9.08897V7.37866H62.6424V6.87478H63.1248V6.10723H63.724H63.7249ZM65.201 5.6792H65.7947V7.34796H65.8417C66.0055 6.99037 66.3748 6.77364 66.7676 6.80525C67.0653 6.789 67.3549 6.90639 67.5568 7.12492C67.7586 7.34345 67.8527 7.64054 67.8138 7.93492V9.89084H67.2146V8.08301C67.2146 7.599 66.9884 7.35428 66.5657 7.35428C66.3576 7.33712 66.1521 7.41298 66.0046 7.56107C65.8571 7.70916 65.7829 7.91415 65.801 8.12274V9.89174H65.2019V5.6801L65.201 5.6792ZM71.3063 9.07271C71.1379 9.64431 70.5841 10.0136 69.9913 9.94863C69.5867 9.95946 69.1976 9.7915 68.927 9.4908C68.6573 9.1901 68.5333 8.78555 68.5885 8.38552C68.5342 7.98458 68.6582 7.57913 68.9261 7.27572C69.1949 6.97231 69.5822 6.79984 69.9877 6.80345C70.832 6.80345 71.3416 7.37957 71.3416 8.33044V8.53903H69.1976V8.57244C69.1786 8.79729 69.2555 9.01943 69.4093 9.18468C69.5632 9.34994 69.7804 9.44294 70.0058 9.44023C70.299 9.47545 70.5841 9.33006 70.728 9.07271H71.3045H71.3063ZM69.1985 8.09655H70.7316C70.747 7.89067 70.6746 7.68839 70.5325 7.5394C70.3904 7.3904 70.1913 7.30732 69.9849 7.31184C69.7759 7.30913 69.5741 7.3913 69.4265 7.53849C69.2781 7.68659 69.1967 7.88706 69.1994 8.09655H69.1985Z" fill="white"/>
</g>
<defs>
<clipPath id="clip0_42_59">
<rect width="81" height="27" fill="white"/>
</clipPath>
</defs>
</svg>
