<svg width="92" height="27" viewBox="0 0 92 27" fill="none" xmlns="http://www.w3.org/2000/svg">
<path d="M88.5929 26.999H3.40708C1.53455 26.999 0 25.4798 0 23.6238V3.37524C0 1.51925 1.53455 0 3.40708 0H88.5929C90.4654 0 92 1.51925 92 3.37524V23.6238C92 25.4788 90.4654 26.999 88.5929 26.999Z" fill="black"/>
<path d="M32.3137 6.9151C32.3137 7.47861 32.1428 7.92923 31.8077 8.26597C31.4212 8.66501 30.9191 8.86647 30.3033 8.86647C29.6875 8.86647 29.2116 8.66209 28.7998 8.26013C28.387 7.85137 28.1802 7.35014 28.1802 6.75159C28.1802 6.15304 28.387 5.65084 28.7998 5.24499C29.2116 4.83915 29.7147 4.63477 30.3033 4.63477C30.5956 4.63477 30.8753 4.69413 31.1424 4.80606C31.4076 4.91798 31.6242 5.06981 31.7815 5.25765L31.426 5.61386C31.1521 5.29366 30.7802 5.13599 30.3043 5.13599C29.875 5.13599 29.502 5.2849 29.1864 5.58466C28.8736 5.88442 28.7173 6.27372 28.7173 6.75159C28.7173 7.22946 28.8736 7.62071 29.1864 7.92144C29.502 8.21829 29.875 8.37011 30.3043 8.37011C30.7598 8.37011 31.1434 8.21829 31.4455 7.91852C31.6446 7.71998 31.7582 7.4465 31.7883 7.0971H30.3043V6.61047H32.2836C32.3069 6.71558 32.3137 6.81777 32.3137 6.91607V6.9151Z" fill="white" stroke="white" stroke-width="0.16" stroke-miterlimit="10"/>
<path d="M35.4547 5.22341H33.5948V6.50616H35.2721V6.99376H33.5948V8.27651H35.4547V8.77384H33.0693V4.72705H35.4547V5.22341Z" fill="white" stroke="white" stroke-width="0.16" stroke-miterlimit="10"/>
<path d="M37.671 8.77384H37.1446V5.22341H36.0044V4.72705H38.8132V5.22341H37.672V8.77384H37.671Z" fill="white" stroke="white" stroke-width="0.16" stroke-miterlimit="10"/>
<path d="M40.8462 8.77384V4.72705H41.3716V8.77384H40.8462Z" fill="white" stroke="white" stroke-width="0.16" stroke-miterlimit="10"/>
<path d="M43.7008 8.77384H43.1793V5.22341H42.0342V4.72705H44.8469V5.22341H43.7018V8.77384H43.7008Z" fill="white" stroke="white" stroke-width="0.16" stroke-miterlimit="10"/>
<path d="M50.1633 8.25333C49.7603 8.66209 49.2611 8.86648 48.6657 8.86648C48.0703 8.86648 47.5672 8.66209 47.1652 8.25333C46.7631 7.84456 46.563 7.34431 46.563 6.7516C46.563 6.15888 46.7631 5.65669 47.1652 5.24889C47.5682 4.84013 48.0674 4.63574 48.6657 4.63574C49.264 4.63574 49.7574 4.84013 50.1604 5.25278C50.5654 5.66447 50.7665 6.16278 50.7665 6.75257C50.7665 7.34236 50.5664 7.8465 50.1643 8.2543L50.1633 8.25333ZM47.5536 7.91366C47.8567 8.21731 48.2257 8.36914 48.6647 8.36914C49.1037 8.36914 49.4738 8.21731 49.7729 7.91366C50.0759 7.61098 50.2294 7.22168 50.2294 6.75062C50.2294 6.27957 50.0759 5.88929 49.7729 5.58661C49.4738 5.28393 49.1008 5.13113 48.6647 5.13113C48.2287 5.13113 47.8567 5.28393 47.5536 5.58661C47.2506 5.88929 47.0972 6.27859 47.0972 6.75062C47.0972 7.22265 47.2506 7.61098 47.5536 7.91366Z" fill="white" stroke="white" stroke-width="0.16" stroke-miterlimit="10"/>
<path d="M51.5034 8.77383V4.72705H52.1425L54.1287 7.87357H54.151L54.1287 7.09497V4.72607H54.6541V8.77286H54.1053L52.025 5.47061H52.0017L52.025 6.25214V8.77383H51.5024H51.5034Z" fill="white" stroke="white" stroke-width="0.16" stroke-miterlimit="10"/>
<path d="M46.4328 14.6835C44.8323 14.6835 43.525 15.8894 43.525 17.5546C43.525 19.2199 44.8323 20.4248 46.4328 20.4248C48.0334 20.4248 49.3446 19.2062 49.3446 17.5546C49.3446 15.903 48.0364 14.6835 46.4328 14.6835ZM46.4328 19.2938C45.5549 19.2938 44.7992 18.5756 44.7992 17.5537C44.7992 16.5317 45.5549 15.8135 46.4328 15.8135C47.3108 15.8135 48.0703 16.5191 48.0703 17.5537C48.0703 18.5882 47.3118 19.2938 46.4328 19.2938ZM40.0878 14.6835C38.4833 14.6835 37.1789 15.8894 37.1789 17.5546C37.1789 19.2199 38.4833 20.4248 40.0878 20.4248C41.6923 20.4248 42.9957 19.2062 42.9957 17.5546C42.9957 15.903 41.6903 14.6835 40.0878 14.6835ZM40.0878 19.2938C39.2088 19.2938 38.4503 18.5756 38.4503 17.5537C38.4503 16.5317 39.2088 15.8135 40.0878 15.8135C40.9667 15.8135 41.7214 16.5191 41.7214 17.5537C41.7214 18.5882 40.9658 19.2938 40.0878 19.2938ZM32.5364 15.5624V16.7828H35.4773C35.3909 17.4651 35.1617 17.9653 34.8091 18.3147C34.3798 18.7362 33.7107 19.2053 32.5364 19.2053C30.7261 19.2053 29.3081 17.758 29.3081 15.9653C29.3081 14.1726 30.7251 12.7253 32.5364 12.7253C33.5155 12.7253 34.2274 13.1049 34.7528 13.5954L35.6211 12.7361C34.8849 12.0412 33.9078 11.5068 32.5364 11.5068C30.054 11.5068 27.9678 13.5078 27.9678 15.9663C27.9678 18.4247 30.054 20.4248 32.5364 20.4248C33.8777 20.4248 34.8849 19.9897 35.6784 19.1722C36.4894 18.3683 36.7429 17.2374 36.7429 16.3244C36.7429 16.0412 36.7186 15.7804 36.6768 15.5624H32.5374H32.5364ZM63.4129 16.5084C63.173 15.866 62.4349 14.6826 60.9304 14.6826C59.426 14.6826 58.1984 15.8456 58.1984 17.5537C58.1984 19.1615 59.427 20.4238 61.0732 20.4238C62.4048 20.4238 63.173 19.6199 63.4896 19.1517L62.5019 18.4997C62.1717 18.9766 61.723 19.2938 61.0742 19.2938C60.4254 19.2938 59.967 19.0009 59.6707 18.4237L63.5469 16.8354L63.4129 16.5084ZM59.46 17.4651C59.427 16.3575 60.3283 15.7911 60.9741 15.7911C61.4802 15.7911 61.9094 16.0412 62.0522 16.3994L59.46 17.4641V17.4651ZM56.3093 20.2496H57.5845V11.8124H56.3093V20.2496ZM54.2221 15.322H54.1794C53.8929 14.9862 53.348 14.6826 52.6555 14.6826C51.2045 14.6826 49.8768 15.9449 49.8768 17.5624C49.8768 19.18 51.2035 20.4228 52.6555 20.4228C53.347 20.4228 53.8929 20.1172 54.1794 19.7707H54.2221V20.1824C54.2221 21.2802 53.6297 21.8691 52.675 21.8691C51.896 21.8691 51.4133 21.3124 51.2142 20.8442L50.106 21.3026C50.4256 22.0637 51.2715 23 52.675 23C54.1687 23 55.4294 22.1299 55.4294 20.0111V14.8568H54.2212V15.322H54.2221ZM52.7643 19.2938C51.8863 19.2938 51.1511 18.5658 51.1511 17.5634C51.1511 16.5609 51.8863 15.8135 52.7643 15.8135C53.6423 15.8135 54.3125 16.5512 54.3125 17.5634C54.3125 18.5756 53.6297 19.2938 52.7643 19.2938ZM69.3792 11.8124H66.3315V20.2496H67.6028V17.0524H69.3792C70.7904 17.0524 72.1754 16.0403 72.1754 14.4324C72.1754 12.8246 70.7875 11.8124 69.3792 11.8124ZM69.4122 15.8797H67.6028V12.9862H69.4122C70.3611 12.9862 70.903 13.7667 70.903 14.4324C70.903 15.0981 70.3611 15.8797 69.4122 15.8797ZM77.2695 14.667C76.3517 14.667 75.396 15.0689 75.0036 15.9585L76.1312 16.4266C76.373 15.9585 76.8208 15.8067 77.2918 15.8067C77.9513 15.8067 78.6205 16.1989 78.6302 16.8918V16.9804C78.4 16.849 77.9076 16.6534 77.3025 16.6534C76.0875 16.6534 74.8501 17.3152 74.8501 18.5512C74.8501 19.6822 75.8457 20.4102 76.9635 20.4102C77.8192 20.4102 78.2912 20.0277 78.5874 19.5829H78.6302V20.235H79.8578V16.9989C79.8578 15.503 78.7302 14.666 77.2695 14.666V14.667ZM77.116 19.2899C76.7003 19.2899 76.1205 19.0856 76.1205 18.5756C76.1205 17.9225 76.8431 17.6724 77.4686 17.6724C78.028 17.6724 78.2902 17.7941 78.6302 17.9556C78.5311 18.7362 77.8512 19.2899 77.116 19.2899ZM84.3303 14.8509L82.8696 18.5084H82.8259L81.3156 14.8509H79.9452L82.214 19.9625L80.9194 22.8063H82.247L85.7435 14.8509H84.3294H84.3303ZM72.8737 20.2496H74.1479V11.8124H72.8737V20.2496Z" fill="white"/>
<path d="M7.11155 5.08919C6.91148 5.29649 6.7959 5.61961 6.7959 6.03811V20.9649C6.7959 21.3834 6.91245 21.7065 7.11155 21.9148L7.16108 21.9596L15.6059 13.5983V13.4008L7.16108 5.03955L7.11155 5.08919Z" fill="url(#paint0_linear_42_293)"/>
<path d="M18.4177 16.3866L15.606 13.5982V13.4007L18.4206 10.6123L18.4837 10.6493L21.818 12.5277C22.7698 13.061 22.7698 13.9379 21.818 14.4751L18.4837 16.3506L18.4177 16.3866Z" fill="url(#paint1_linear_42_293)"/>
<path d="M18.4845 16.3507L15.6067 13.5L7.1123 21.9138C7.42796 22.2427 7.94368 22.2826 8.52933 21.9527L18.4845 16.3507Z" fill="url(#paint2_linear_42_293)"/>
<path d="M18.4845 10.6495L8.52933 5.04648C7.94271 4.72044 7.42796 4.76034 7.1123 5.0893L15.6067 13.5002L18.4845 10.6495Z" fill="url(#paint3_linear_42_293)"/>
<defs>
<linearGradient id="paint0_linear_42_293" x1="14.8163" y1="21.1481" x2="3.49724" y2="9.73942" gradientUnits="userSpaceOnUse">
<stop stop-color="#00A1FF"/>
<stop offset="0.26" stop-color="#00BEFF"/>
<stop offset="0.51" stop-color="#00D2FF"/>
<stop offset="0.76" stop-color="#00DFFF"/>
<stop offset="1" stop-color="#00E3FF"/>
</linearGradient>
<linearGradient id="paint1_linear_42_293" x1="22.999" y1="13.5324" x2="6.54921" y2="13.5324" gradientUnits="userSpaceOnUse">
<stop stop-color="#FFE000"/>
<stop offset="0.41" stop-color="#FFBD00"/>
<stop offset="0.78" stop-color="#FFA500"/>
<stop offset="1" stop-color="#FF9C00"/>
</linearGradient>
<linearGradient id="paint2_linear_42_293" x1="11.2022" y1="17.6129" x2="-4.14335" y2="2.1446" gradientUnits="userSpaceOnUse">
<stop stop-color="#FF3A44"/>
<stop offset="1" stop-color="#C31162"/>
</linearGradient>
<linearGradient id="paint3_linear_42_293" x1="-0.712915" y1="21.2754" x2="6.13942" y2="14.3673" gradientUnits="userSpaceOnUse">
<stop stop-color="#32A071"/>
<stop offset="0.07" stop-color="#2DA771"/>
<stop offset="0.48" stop-color="#15CF74"/>
<stop offset="0.8" stop-color="#06E775"/>
<stop offset="1" stop-color="#00F076"/>
</linearGradient>
</defs>
</svg>
