<svg width="92" height="28" viewBox="0 0 92 28" fill="none" xmlns="http://www.w3.org/2000/svg">
<g clip-path="url(#clip0_118_20)">
<mask id="mask0_118_20" style="mask-type:luminance" maskUnits="userSpaceOnUse" x="-1" y="-1" width="93" height="29">
<path d="M87.7569 -0.5H3.74312C1.39971 -0.5 -0.5 1.73858 -0.5 4.5V22.5C-0.5 25.2614 1.39971 27.5 3.74312 27.5H87.7569C90.1003 27.5 92 25.2614 92 22.5V4.5C92 1.73858 90.1003 -0.5 87.7569 -0.5Z" fill="white"/>
</mask>
<g mask="url(#mask0_118_20)">
<path d="M92 28V0H0V28" fill="black"/>
<mask id="mask1_118_20" style="mask-type:luminance" maskUnits="userSpaceOnUse" x="-1" y="-1" width="110" height="29">
<path d="M108.5 27.5V-0.5H-0.5V27.5" fill="white"/>
</mask>
<g mask="url(#mask1_118_20)">
<path d="M13.7537 4.79339C13.7889 4.94934 13.8087 5.1405 13.8131 5.36592C12.9992 5.71303 12.6855 5.96288 12.6996 7.15607V7.88766L12.1422 7.99857V7.15176C12.1425 5.39371 12.8224 5.11703 13.7537 4.79339ZM15.3749 4.41634C15.4127 4.58618 15.4425 4.77208 15.4614 4.9697C16.9201 4.76345 16.8915 5.35849 16.8915 6.5996V7.05882L17.4433 6.94671V6.5996C17.443 4.67147 17.1402 4.15571 15.3749 4.41634ZM9.6299 8.49539V5.95976C9.612 4.38856 10.4319 3.90682 11.9482 3.55444C14.228 3.02576 14.3743 4.4815 14.3743 5.4076V7.5566L14.9317 7.44569V5.45479C14.9263 3.7032 14.3743 2.39047 11.8353 2.95988C10.468 3.26746 9.07279 3.61242 9.07279 5.90778V8.60463L9.6299 8.49539ZM16.314 15.1611H12.0199V12.0894L16.314 11.4665V15.1611ZM16.314 19.502L12.0199 18.8825V15.5844H16.314V19.502ZM11.5917 15.1611H8.18529V12.5893L11.5917 12.1128V15.1611ZM11.5917 18.8557L8.18529 18.3814V15.5841H11.5917V18.8557ZM20.2354 7.06289L4.88525 10.0994V21.1393L20.2354 24.1749L23.3031 23.0725V8.16745L20.2354 7.06289Z" fill="white"/>
</g>
<mask id="mask2_118_20" style="mask-type:luminance" maskUnits="userSpaceOnUse" x="-1" y="-1" width="110" height="29">
<path d="M108.5 27.5V-0.5H-0.5V27.5" fill="white"/>
</mask>
<g mask="url(#mask2_118_20)">
<path d="M33.7182 7.47437C33.7182 8.03851 33.593 8.53725 33.3418 8.96964C33.0918 9.40106 32.7357 9.7343 32.2748 9.9683C31.8126 10.2012 31.2841 10.3176 30.6899 10.3176H29.207V4.76889H30.7563C32.7306 4.76889 33.7182 5.66936 33.7182 7.47437ZM33.0303 7.48946C33.0303 6.06773 32.2673 5.35747 30.7405 5.35747H29.8637V9.7302H30.6979C31.4389 9.7302 32.0127 9.5347 32.4182 9.14379C32.8268 8.75284 33.0303 8.20188 33.0303 7.48946ZM38.3785 8.32237C38.3785 8.95047 38.1981 9.45784 37.8364 9.8402C37.475 10.2225 36.9908 10.4158 36.3833 10.4158C35.7909 10.4158 35.3185 10.2278 34.9649 9.855C34.6117 9.48227 34.4352 8.99095 34.4352 8.38202C34.4352 7.72829 34.6166 7.20919 34.9777 6.83022C35.3406 6.44981 35.8408 6.25865 36.4773 6.25865C37.0722 6.25865 37.5378 6.44119 37.8742 6.80866C38.2104 7.17852 38.3785 7.68158 38.3785 8.32237ZM37.7214 8.34489C37.7214 7.84711 37.6102 7.46479 37.3866 7.19889C37.164 6.93298 36.8445 6.80052 36.4299 6.80052C36.0183 6.80052 35.6923 6.9361 35.4525 7.20871C35.2122 7.48107 35.0918 7.86555 35.0918 8.35902C35.0918 8.83549 35.2122 9.20511 35.4537 9.47317C35.6957 9.7403 36.0212 9.8737 36.4301 9.8737C36.8479 9.8737 37.1667 9.7424 37.3891 9.47964C37.6112 9.21541 37.7214 8.83716 37.7214 8.34489ZM44.42 6.35495L43.2191 10.3176H42.5532L41.727 7.48084C41.6994 7.38358 41.6786 7.26189 41.6655 7.11768H41.6497C41.6418 7.20727 41.6141 7.32704 41.5676 7.47437L40.6717 10.3176H40.0298L38.8206 6.35495H39.494L40.319 9.33495C40.3454 9.43844 40.3633 9.557 40.3747 9.6916H40.4055C40.4098 9.5944 40.4352 9.47149 40.4793 9.32752L41.3983 6.35495H41.9864L42.8197 9.34237C42.8461 9.44394 42.864 9.5625 42.8737 9.6991H42.9045C42.9115 9.5752 42.9309 9.4576 42.9677 9.34237L43.7864 6.35495H44.42ZM48.4933 10.3176H47.8516V8.05743C47.8516 7.21901 47.5411 6.80027 46.9207 6.80027C46.6044 6.80027 46.3397 6.91885 46.1275 7.15385C45.9153 7.38981 45.8089 7.69212 45.8089 8.05743V10.3176H45.168V6.35495H45.8089V7.01299H45.8247C46.1255 6.50994 46.5635 6.25889 47.1397 6.25889C47.5808 6.25889 47.9163 6.39999 48.1474 6.68505C48.3784 6.9682 48.4935 7.37088 48.4935 7.89095L48.4933 10.3176ZM50.3443 10.3176H49.7027V4.45173H50.3443V10.3176ZM55.2827 8.32237C55.2827 8.95047 55.1013 9.45784 54.7406 9.8402C54.379 10.2225 53.8946 10.4158 53.2866 10.4158C52.6946 10.4158 52.2218 10.2278 51.8684 9.855C51.5147 9.48227 51.3377 8.99095 51.3377 8.38202C51.3377 7.72829 51.5191 7.20919 51.8819 6.83022C52.2448 6.44981 52.7442 6.25865 53.3803 6.25865C53.9764 6.25865 54.441 6.44119 54.7784 6.80866C55.1142 7.17852 55.2827 7.68158 55.2827 8.32237ZM54.6256 8.34489C54.6256 7.84711 54.5127 7.46479 54.2904 7.19889C54.0673 6.93298 53.7487 6.80052 53.3341 6.80052C52.9216 6.80052 52.5955 6.9361 52.355 7.20871C52.1164 7.48107 51.996 7.86555 51.996 8.35902C51.996 8.83549 52.1164 9.20511 52.3577 9.47317C52.5984 9.7403 52.9247 9.8737 53.3341 9.8737C53.7509 9.8737 54.0707 9.7424 54.293 9.47964C54.5137 9.21541 54.6256 8.83716 54.6256 8.34489ZM59.1135 10.3176H58.4718V9.6993H58.4563C58.1766 10.1758 57.765 10.416 57.2234 10.416C56.8373 10.416 56.528 10.3114 56.2967 10.1041C56.0639 9.8948 55.9479 9.6159 55.9479 9.26452C55.9479 8.52767 56.3885 8.0972 57.2697 7.97215L58.4718 7.80662C58.4718 7.13684 58.1964 6.80052 57.6456 6.80052C57.1634 6.80052 56.7276 6.96197 56.3393 7.2844V6.63498C56.4553 6.54635 56.6569 6.46203 56.9415 6.38082C57.2266 6.29962 57.479 6.25913 57.7013 6.25913C58.6419 6.25913 59.1135 6.75261 59.1135 7.74171V10.3176ZM58.4718 8.31399L57.501 8.44861C57.1699 8.49437 56.9378 8.57342 56.8056 8.68361C56.6716 8.79261 56.6053 8.96988 56.6053 9.21541C56.6053 9.41424 56.6772 9.5733 56.8208 9.6928C56.964 9.8124 57.1469 9.8735 57.3717 9.8735C57.6902 9.8735 57.9532 9.7623 58.1601 9.5402C58.3679 9.31914 58.4721 9.0415 58.4721 8.70829L58.4718 8.31399ZM63.7106 10.3176H63.069V9.6447H63.0537C62.7563 10.1573 62.296 10.4158 61.6757 10.4158C61.1702 10.4158 60.7669 10.2352 60.4673 9.8754C60.1676 9.5153 60.017 9.03384 60.017 8.43353C60.017 7.77764 60.1839 7.25231 60.5159 6.8537C60.8485 6.45748 61.294 6.25889 61.853 6.25889C62.4 6.25889 62.8006 6.47257 63.054 6.90088H63.0692V4.45173H63.7109L63.7106 10.3176ZM63.069 8.52647V7.94125C63.069 7.6145 62.9597 7.34214 62.7383 7.12535C62.5186 6.90951 62.2498 6.80052 61.9344 6.80052C61.5483 6.80052 61.2421 6.94161 61.0142 7.22452C60.7889 7.50647 60.6751 7.89837 60.6751 8.39831C60.6751 8.85226 60.7809 9.21206 60.9953 9.477C61.2092 9.7419 61.4974 9.8732 61.8603 9.8732C62.2117 9.8732 62.5019 9.7472 62.7296 9.49281C62.9556 9.24105 63.069 8.91957 63.069 8.52647ZM68.8569 5.00916C68.7316 4.93873 68.589 4.90448 68.4296 4.90448C67.982 4.90448 67.7572 5.18427 67.7572 5.7441V6.35495H68.6963V6.89226H67.7572V10.3176H67.1158V6.89226H66.4346V6.35495H67.1158V5.712C67.1158 5.31147 67.2352 4.98473 67.4755 4.73799C67.715 4.49006 68.0202 4.36621 68.3908 4.36621C68.5868 4.36621 68.7418 4.38873 68.8569 4.43568V5.00916ZM71.4741 6.99814C71.359 6.91262 71.1965 6.86998 70.9843 6.86998C70.7004 6.86998 70.4703 7.00246 70.293 7.2662C70.1147 7.53114 70.0263 7.87489 70.0263 8.29794V10.3176H69.3842V6.35495H70.0263V7.17206H70.0421C70.1305 6.89873 70.2678 6.68289 70.4524 6.52359C70.6382 6.36549 70.8504 6.28548 71.0906 6.28548C71.2575 6.28548 71.3854 6.30369 71.4741 6.3389V6.99814ZM75.7101 8.32237C75.7101 8.95047 75.5286 9.45784 75.1685 9.8402C74.8068 10.2225 74.3224 10.4158 73.7137 10.4158C73.1224 10.4158 72.6489 10.2278 72.2962 9.855C71.9425 9.48227 71.7655 8.99095 71.7655 8.38202C71.7655 7.72829 71.9469 7.20919 72.3098 6.83022C72.6721 6.44981 73.1721 6.25865 73.8084 6.25865C74.403 6.25865 74.8691 6.44119 75.206 6.80866C75.542 7.17852 75.7101 7.68158 75.7101 8.32237ZM75.0532 8.34489C75.0532 7.84711 74.9403 7.46479 74.7179 7.19889C74.4943 6.93298 74.1763 6.80052 73.7616 6.80052C73.3491 6.80052 73.0224 6.9361 72.7826 7.20871C72.5428 7.48107 72.4219 7.86555 72.4219 8.35902C72.4219 8.83549 72.544 9.20511 72.7847 9.47317C73.0262 9.7403 73.3523 9.8737 73.7616 9.8737C74.1785 9.8737 74.4982 9.7424 74.7201 9.47964C74.9415 9.21541 75.0532 8.83716 75.0532 8.34489ZM82.393 10.3176H81.7513V8.04162C81.7513 7.59941 81.6828 7.28105 81.5457 7.08989C81.4086 6.89657 81.1785 6.80027 80.8544 6.80027C80.5816 6.80027 80.3479 6.92412 80.1565 7.17206C79.9654 7.41975 79.8693 7.71464 79.8693 8.05743V10.3176H79.2266V7.96568C79.2266 7.1893 78.9236 6.80052 78.3152 6.80052C78.0332 6.80052 77.8012 6.91789 77.6185 7.15073C77.4361 7.38477 77.3453 7.68709 77.3453 8.05743V10.3176H76.7027V6.35495H77.3453V6.98185H77.3608C77.6449 6.50012 78.0586 6.25889 78.6017 6.25889C78.8614 6.25889 79.0968 6.33148 79.3046 6.47569C79.5137 6.61989 79.6588 6.82279 79.7394 7.08247C80.0369 6.53342 80.4804 6.25889 81.07 6.25889C81.9512 6.25889 82.3925 6.79716 82.3925 7.87705L82.393 10.3176Z" fill="white"/>
</g>
<mask id="mask3_118_20" style="mask-type:luminance" maskUnits="userSpaceOnUse" x="-1" y="-1" width="110" height="29">
<path d="M108.5 27.5V-0.5H-0.5V27.5" fill="white"/>
</mask>
<g mask="url(#mask3_118_20)">
<path d="M39.4742 13.8808L37.1132 22.1458H35.9663L34.2453 16.1003C34.1799 15.8727 34.1378 15.5941 34.1184 15.2652H34.0951C34.0639 15.5483 34.0111 15.8238 33.9382 16.0897L32.2063 22.1458H31.0703L28.6284 13.8808H29.7002L31.4784 20.221C31.5523 20.5008 31.6 20.7787 31.6233 21.0508H31.6475C31.6654 20.8158 31.7252 20.5403 31.8224 20.221L33.6756 13.8808H34.6191L36.3853 20.267C36.4517 20.5051 36.4982 20.7617 36.5246 21.0338H36.5479C36.5668 20.833 36.6198 20.5702 36.706 20.2445L38.4135 13.8808H39.4742ZM41.3708 14.3029C41.3708 14.4802 41.3092 14.6277 41.1838 14.7439C41.059 14.8603 40.9127 14.919 40.7405 14.919C40.5656 14.919 40.4186 14.8623 40.2982 14.7504C40.1778 14.6349 40.1168 14.4866 40.1168 14.3029C40.1168 14.1374 40.1778 13.9944 40.296 13.8724C40.4142 13.7529 40.5622 13.6909 40.7405 13.6909C40.9197 13.6909 41.069 13.7517 41.191 13.8703C41.3102 13.9901 41.3708 14.1331 41.3708 14.3029ZM41.207 22.1458H40.2507V16.2435H41.207V22.1458ZM47.6082 22.1458H46.6519V18.7801C46.6519 17.5316 46.1898 16.9056 45.2657 16.9056C44.7948 16.9056 44.4012 17.0829 44.0849 17.4343C43.7673 17.7845 43.6096 18.2342 43.6096 18.7801V22.1458H42.6548V16.2435H43.6096V17.224H43.6324C44.0805 16.4752 44.7318 16.1003 45.5915 16.1003C46.2481 16.1003 46.7481 16.3118 47.092 16.7336C47.436 17.1576 47.6082 17.7558 47.6082 18.5324V22.1458ZM54.2395 22.1458H53.2837V21.1428H53.2617C52.8184 21.9086 52.1354 22.29 51.2103 22.29C50.4565 22.29 49.856 22.0219 49.4089 21.4868C48.9635 20.9507 48.7399 20.2351 48.7399 19.3399C48.7399 18.3647 48.9879 17.5797 49.483 16.988C49.9776 16.3973 50.6413 16.1003 51.4729 16.1003C52.288 16.1003 52.885 16.4186 53.2619 17.0563H53.284V13.4077H54.2398L54.2395 22.1458ZM53.2837 19.4767V18.6071C53.2837 18.1201 53.1202 17.7153 52.7918 17.3907C52.4633 17.0683 52.0649 16.9059 51.5952 16.9059C51.0202 16.9059 50.5633 17.1174 50.2264 17.538C49.8878 17.9577 49.7177 18.541 49.7177 19.2875C49.7177 19.9637 49.8781 20.4977 50.1961 20.8917C50.5146 21.287 50.9441 21.4822 51.4847 21.4822C52.0079 21.4822 52.4406 21.2944 52.7775 20.9171C53.1168 20.5427 53.2837 20.0619 53.2837 19.4767ZM61.2972 19.1722C61.2972 20.1101 61.0288 20.8642 60.4889 21.4345C59.9514 22.0061 59.2291 22.29 58.3244 22.29C57.4432 22.29 56.7386 22.0123 56.2107 21.458C55.6849 20.9027 55.4223 20.1721 55.4223 19.2652C55.4223 18.2878 55.6924 17.5167 56.2328 16.9507C56.7727 16.3834 57.5158 16.1005 58.4646 16.1005C59.3497 16.1005 60.0429 16.3738 60.5453 16.9219C61.0462 17.4686 61.2972 18.2186 61.2972 19.1722ZM60.3176 19.2065C60.3176 18.4653 60.1519 17.8981 59.8199 17.5007C59.4873 17.1044 59.0125 16.9059 58.3941 16.9059C57.7806 16.9059 57.2952 17.11 56.9377 17.5146C56.5801 17.9204 56.4016 18.4919 56.4016 19.23C56.4016 19.9381 56.5821 20.4893 56.941 20.8855C57.2995 21.2839 57.7849 21.4825 58.3941 21.4825C59.0147 21.4825 59.4926 21.287 59.8218 20.896C60.1532 20.5032 60.3176 19.9402 60.3176 19.2065ZM69.9966 16.2435L68.207 22.1458H67.2161L65.9876 17.9216C65.9454 17.7752 65.9137 17.5948 65.8948 17.3802H65.8706C65.858 17.5148 65.8182 17.6909 65.7485 17.9098L64.4136 22.146H63.4583L61.6569 16.2437H62.6597L63.8887 20.6828C63.927 20.8354 63.9551 21.0139 63.9701 21.2137H64.0166C64.0246 21.0673 64.0609 20.8857 64.1273 20.6711L65.4978 16.2437H66.372L67.6129 20.6934C67.6507 20.8429 67.6792 21.0201 67.6938 21.2242H67.7403C67.749 21.0405 67.7803 20.8632 67.8343 20.6934L69.0519 16.2437L69.9966 16.2435ZM74.0688 20.5662C74.0688 21.0776 73.8695 21.4932 73.4715 21.8126C73.073 22.1309 72.5433 22.29 71.8845 22.29C71.3201 22.29 70.8272 22.1714 70.4033 21.9321V20.9174C70.8725 21.2944 71.3898 21.4825 71.9542 21.4825C72.7107 21.4825 73.091 21.2091 73.091 20.6589C73.091 20.4356 73.0171 20.254 72.8684 20.1141C72.7204 19.9742 72.3839 19.7852 71.8602 19.5469C71.3327 19.3236 70.9589 19.0855 70.7409 18.8292C70.5232 18.5738 70.4149 18.2342 70.4149 17.8114C70.4149 17.3244 70.614 16.9162 71.01 16.5894C71.4058 16.2636 71.9089 16.1003 72.5193 16.1003C72.9897 16.1003 73.4141 16.1922 73.7958 16.3769V17.3275C73.4063 17.0477 72.9573 16.9056 72.4442 16.9056C72.1279 16.9056 71.8757 16.9837 71.6834 17.1373C71.4901 17.2899 71.3935 17.4899 71.3935 17.7311C71.3935 17.9927 71.469 18.1925 71.6161 18.3333C71.7641 18.4723 72.0685 18.64 72.531 18.8299C73.0978 19.0692 73.4964 19.3191 73.7253 19.5819C73.954 19.842 74.0688 20.1719 74.0688 20.5662Z" fill="white"/>
</g>
</g>
</g>
<defs>
<clipPath id="clip0_118_20">
<rect width="92" height="28" fill="white"/>
</clipPath>
</defs>
</svg>
